<svg width="16" height="16" viewBox="0 0 16 16" fill="none" xmlns="http://www.w3.org/2000/svg">
<g clip-path="url(#clip0_280_1671)">
<rect width="16" height="16" fill="#EEEEEE"/>
<path d="M2.83558 4.80238L4.80287 2.83509L4.31104 2.34326L2.34375 4.31056L2.83558 4.80238Z" fill="#333333"/>
<path d="M11.1977 2.83662L11.9354 3.57435L12.4272 3.08252L11.6895 2.34479L11.1977 2.83662Z" fill="#333333"/>
<path d="M12.4278 5.54173L10.4605 3.57444L10.9523 3.08261L12.9196 5.0499L12.4278 5.54173Z" fill="#333333"/>
<path d="M11.6867 9.72187L10.9489 10.4596L11.4407 10.9514L12.1785 10.2137L11.6867 9.72187Z" fill="#333333"/>
<path d="M10.4567 10.9515L9.719 11.6892L10.2108 12.181L10.9486 11.4433L10.4567 10.9515Z" fill="#333333"/>
<path d="M12.4245 11.935L13.1622 11.1973L13.6541 11.6891L12.9163 12.4268L12.4245 11.935Z" fill="#333333"/>
<path d="M11.9324 12.4271L11.1946 13.1648L11.6865 13.6567L12.4242 12.9189L11.9324 12.4271Z" fill="#333333"/>
<path d="M11.6867 11.1973L12.4244 10.4596L12.9162 10.9514L12.1785 11.6892L11.6867 11.1973Z" fill="#333333"/>
<path d="M11.1948 11.6892L10.4571 12.4269L10.9489 12.9188L11.6867 12.181L11.1948 11.6892Z" fill="#333333"/>
<path d="M9.72236 4.31235L10.4601 5.05008L10.9519 4.55827L10.2142 3.82054L9.72236 4.31235Z" fill="#333333"/>
<path d="M11.6897 6.27996L10.9519 5.54223L11.4437 5.05043L12.1815 5.78816L11.6897 6.27996Z" fill="#333333"/>
<path d="M13.1657 4.80438L12.4279 4.06665L12.9198 3.57482L13.6575 4.31255L13.1657 4.80438Z" fill="#333333"/>
<path d="M4.80308 13.1633L2.83579 11.196L2.34396 11.6878L4.31125 13.6551L4.80308 13.1633Z" fill="#333333"/>
<path d="M4.80298 11.6874L5.54071 12.4252L5.0489 12.917L4.31117 12.1792L4.80298 11.6874Z" fill="#333333"/>
<path d="M4.31104 11.1958L3.57331 10.4581L3.08148 10.9499L3.81921 11.6877L4.31104 11.1958Z" fill="#333333"/>
<path d="M4.31113 9.72015L6.27842 11.6874L5.7866 12.1793L3.8193 10.212L4.31113 9.72015Z" fill="#333333"/>
<path d="M5.54061 3.57274L3.57332 5.54003L3.08149 5.0482L5.04878 3.08091L5.54061 3.57274Z" fill="#333333"/>
<path d="M4.31175 6.27821L6.27904 4.31092L5.78723 3.81911L3.81994 5.78641L4.31175 6.27821Z" fill="#333333"/>
<circle cx="3" cy="3" r="3" transform="matrix(-0.707107 -0.707107 -0.707107 0.707107 12.2422 8)" fill="#D80027"/>
<path d="M5.87772 5.8792C4.70666 7.05025 4.70585 8.94894 5.87649 10.1196C7.04712 11.2902 8.9493 11.2929 10.1204 10.1218C10.7066 9.53554 10.7084 8.58413 10.122 7.99769C9.53508 7.41081 8.58519 7.41409 7.9989 8.00038C7.41252 8.58676 6.46246 8.58806 5.8754 8.001C5.2895 7.41492 5.29134 6.46558 5.87772 5.8792Z" fill="#0052B4"/>
</g>
<defs>
<clipPath id="clip0_280_1671">
<rect width="16" height="16" rx="4" fill="white"/>
</clipPath>
</defs>
</svg>
