<svg width="16" height="16" viewBox="0 0 16 16" fill="none" xmlns="http://www.w3.org/2000/svg">
<g clip-path="url(#clip0_280_1192)">
<rect y="5.21777" width="16" height="5.56528" fill="#D80027"/>
<rect width="16" height="5.56528" fill="#338AF3"/>
<rect y="10.4347" width="16" height="5.56528" fill="#6DA544"/>
<rect y="6.26099" width="16" height="3.47819" fill="#EEEEEE"/>
<path d="M3.65519 2.78308C3.65519 2.0338 4.18178 1.40786 4.885 1.2543C4.77694 1.23068 4.66478 1.2179 4.54959 1.2179C3.68516 1.2179 2.98438 1.91865 2.98438 2.78311C2.98438 3.64758 3.68509 4.34833 4.54959 4.34833C4.66478 4.34833 4.77691 4.33552 4.885 4.31193C4.18181 4.1583 3.65519 3.53236 3.65519 2.78308Z" fill="#EEEEEE"/>
<path d="M5.8102 3.49414L5.91614 3.82023H6.25902L5.98164 4.0218L6.08758 4.34789L5.8102 4.14636L5.53277 4.34789L5.63873 4.0218L5.36133 3.82023H5.7042L5.8102 3.49414Z" fill="#EEEEEE"/>
<path d="M6.90389 3.49414L7.00986 3.82023H7.35273L7.07533 4.0218L7.1813 4.34789L6.90389 4.14636L6.62648 4.34789L6.73245 4.0218L6.45508 3.82023H6.79792L6.90389 3.49414Z" fill="#EEEEEE"/>
<path d="M7.99966 3.49414L8.10559 3.82023H8.4485L8.17109 4.0218L8.27703 4.34789L7.99966 4.14636L7.72222 4.34789L7.82822 4.0218L7.55078 3.82023H7.89369L7.99966 3.49414Z" fill="#EEEEEE"/>
<path d="M9.09341 3.49414L9.19938 3.82023H9.54222L9.26484 4.0218L9.37081 4.34789L9.09341 4.14636L8.81597 4.34789L8.92197 4.0218L8.64453 3.82023H8.98741L9.09341 3.49414Z" fill="#EEEEEE"/>
<path d="M10.1871 3.49414L10.2931 3.82023H10.6359L10.3586 4.0218L10.4645 4.34789L10.1871 4.14636L9.90969 4.34789L10.0157 4.0218L9.73828 3.82023H10.0811L10.1871 3.49414Z" fill="#EEEEEE"/>
<path d="M6.90389 2.35645L7.00986 2.68251H7.35273L7.07533 2.8841L7.1813 3.21016L6.90389 3.00863L6.62648 3.21016L6.73245 2.8841L6.45508 2.68251H6.79792L6.90389 2.35645Z" fill="#EEEEEE"/>
<path d="M7.99966 2.35645L8.10559 2.68251H8.4485L8.17109 2.8841L8.27703 3.21016L7.99966 3.00863L7.72222 3.21016L7.82822 2.8841L7.55078 2.68251H7.89369L7.99966 2.35645Z" fill="#EEEEEE"/>
<path d="M9.09341 2.35645L9.19938 2.68251H9.54222L9.26484 2.8841L9.37081 3.21016L9.09341 3.00863L8.81597 3.21016L8.92197 2.8841L8.64453 2.68251H8.98741L9.09341 2.35645Z" fill="#EEEEEE"/>
<path d="M10.1871 2.35645L10.2931 2.68251H10.6359L10.3586 2.8841L10.4645 3.21016L10.1871 3.00863L9.90969 3.21016L10.0157 2.8841L9.73828 2.68251H10.0811L10.1871 2.35645Z" fill="#EEEEEE"/>
<path d="M7.99966 1.21777L8.10559 1.5439H8.4485L8.17109 1.74543L8.27703 2.07155L7.99966 1.87002L7.72222 2.07155L7.82822 1.74543L7.55078 1.5439H7.89369L7.99966 1.21777Z" fill="#EEEEEE"/>
<path d="M9.09328 1.21777L9.19925 1.5439H9.5421L9.26472 1.74543L9.37069 2.07155L9.09328 1.87002L8.81585 2.07155L8.92185 1.74543L8.64441 1.5439H8.98728L9.09328 1.21777Z" fill="#EEEEEE"/>
<path d="M10.1871 1.21777L10.2931 1.5439H10.6359L10.3586 1.74543L10.4645 2.07155L10.1871 1.87002L9.90969 2.07155L10.0157 1.74543L9.73828 1.5439H10.0811L10.1871 1.21777Z" fill="#EEEEEE"/>
</g>
<defs>
<clipPath id="clip0_280_1192">
<rect width="16" height="16" rx="4" fill="white"/>
</clipPath>
</defs>
</svg>
