<svg width="16" height="16" viewBox="0 0 16 16" fill="none" xmlns="http://www.w3.org/2000/svg">
<g clip-path="url(#clip0_280_1112)">
<path d="M0 9.39238H16V16H0V9.39238Z" fill="#007C30"/>
<path d="M0 0H16V10.7826H0V0Z" fill="#CE1720"/>
<path d="M0 0H4V16L0 16V0Z" fill="#EEEEEE"/>
<path d="M1.12491 7.59035L0.364583 6.37121L1.12491 5.17537L1.88132 6.37121L1.12491 7.59035ZM2.87288 7.59035L2.11647 6.37121L2.87288 5.17537L3.6332 6.37121L2.87288 7.59035ZM1.12491 10.7586L0.364583 9.53942L1.12491 8.34358L1.88132 9.53942L1.12491 10.7586ZM2.87288 10.7586L2.11647 9.53942L2.87288 8.34358L3.6332 9.53942L2.87288 10.7586Z" fill="#CE1720"/>
<path fill-rule="evenodd" clip-rule="evenodd" d="M1.12638 2L1.9145 3.24922L1.12638 4.51795L0.333333 3.24922L1.12638 2ZM2.87362 2L3.66667 3.24922L2.87362 4.51795L2.0855 3.24922L2.87362 2ZM0.656715 3.25033L1.12565 4.00055L1.59168 3.25033L1.12565 2.51165L0.656715 3.25033ZM2.87435 2.51165L2.40832 3.25033L2.87435 4.00055L3.34329 3.25033L2.87435 2.51165ZM1.12638 11.4774L1.91441 12.7265L1.12638 14L0.33342 12.7265L1.12638 11.4774ZM2.87362 11.4774L3.66658 12.7265L2.87362 14L2.08559 12.7265L2.87362 11.4774ZM0.656628 12.7279L1.12565 13.4812L1.59177 12.7279L1.12565 11.9891L0.656628 12.7279ZM2.87435 11.9891L2.40823 12.7279L2.87435 13.4812L3.34337 12.7279L2.87435 11.9891Z" fill="#CE1720"/>
</g>
<defs>
<clipPath id="clip0_280_1112">
<rect width="16" height="16" rx="4" fill="white"/>
</clipPath>
</defs>
</svg>
