<svg width="16" height="16" viewBox="0 0 16 16" fill="none" xmlns="http://www.w3.org/2000/svg">
<g clip-path="url(#clip0_280_1128)">
<rect width="16" height="16" fill="#FF0000"/>
<path d="M8 14L7.79541 11.955C7.78841 11.8863 7.81259 11.8163 7.86541 11.7718C7.89691 11.7453 7.9405 11.725 8 11.7259C8.08782 11.7275 8.14096 11.7746 8.17182 11.8208C8.1995 11.8618 8.21032 11.9118 8.20555 11.9611L8 13.9997V14ZM14 8L11.955 7.79541C11.8863 7.78841 11.8163 7.81259 11.7718 7.86541C11.7453 7.89691 11.725 7.9405 11.7259 8C11.7275 8.08782 11.7746 8.14096 11.8208 8.17182C11.8618 8.1995 11.9118 8.21032 11.9611 8.20555L13.9997 8H14ZM13.9262 8.93864L11.9385 8.41682C11.8717 8.39932 11.7988 8.41205 11.7466 8.45723C11.7154 8.48428 11.6887 8.52437 11.6804 8.58291C11.668 8.6701 11.7065 8.7296 11.7469 8.76746C11.7832 8.80119 11.8309 8.81996 11.8803 8.82251L13.9262 8.93864ZM13.7063 9.85406L11.8246 9.02774C11.7613 9.00005 11.6874 9.00133 11.6289 9.0376C11.5939 9.05955 11.5611 9.09455 11.5439 9.15151C11.5182 9.23551 11.5468 9.30042 11.5808 9.34401C11.6114 9.38283 11.6556 9.40892 11.704 9.41942L13.7063 9.85406ZM13.3461 10.724L11.6168 9.61351C11.5589 9.57628 11.4854 9.56578 11.4218 9.59283C11.3836 9.60906 11.346 9.63865 11.3199 9.69179C11.2814 9.7707 11.2993 9.83942 11.3263 9.88779C11.3505 9.93106 11.3899 9.96351 11.4361 9.98133L13.3458 10.724H13.3461ZM12.8542 11.5268L11.3199 10.1595C11.2684 10.1137 11.1978 10.0917 11.1306 10.1086C11.0905 10.1185 11.0485 10.142 11.0145 10.1907C10.9639 10.2626 10.9709 10.3332 10.99 10.3854C11.0072 10.4319 11.0409 10.4701 11.0838 10.4952L12.8539 11.5274L12.8542 11.5268ZM12.2427 12.2427L10.9413 10.6521C10.8977 10.5986 10.8312 10.5662 10.7622 10.5722C10.7211 10.5757 10.6759 10.5922 10.6349 10.6349C10.5738 10.6982 10.5697 10.7688 10.5805 10.8232C10.59 10.8719 10.6177 10.9149 10.6559 10.9464L12.2427 12.2427ZM11.5268 12.8542L10.4901 11.0797C10.4554 11.0202 10.3947 10.9776 10.3259 10.9728C10.2849 10.9699 10.2378 10.9792 10.1904 11.0148C10.1201 11.0676 10.1051 11.137 10.107 11.1923C10.1089 11.2417 10.1293 11.2888 10.1624 11.3257L11.5268 12.8542ZM10.724 13.3461L9.97783 11.4313C9.9527 11.367 9.89956 11.3155 9.83242 11.2999C9.79233 11.2907 9.74429 11.2926 9.69179 11.3203C9.61415 11.3613 9.58838 11.4275 9.58169 11.4825C9.57565 11.5315 9.58869 11.5812 9.61542 11.6228L10.724 13.3461ZM9.85406 13.7063L9.41656 11.6983C9.40192 11.6308 9.35738 11.5716 9.29342 11.5458C9.25524 11.5303 9.20751 11.5248 9.15151 11.5439C9.06846 11.5726 9.03251 11.6337 9.01755 11.6871C9.00387 11.7348 9.00896 11.7858 9.02901 11.8309L9.85438 13.7063H9.85406ZM8.93864 13.9262L8.8206 11.8745C8.81678 11.8055 8.7821 11.7403 8.72291 11.7046C8.6876 11.6833 8.64146 11.6703 8.58291 11.6804C8.49637 11.6957 8.4515 11.7504 8.42796 11.8007C8.40728 11.8456 8.40409 11.8968 8.41682 11.9445L8.93864 13.9262ZM2 8L4.04497 7.79541C4.1137 7.78841 4.1837 7.81259 4.22824 7.86541C4.25465 7.89691 4.27502 7.9405 4.27406 8C4.27247 8.08782 4.22538 8.14096 4.17924 8.17182C4.1382 8.1995 4.08824 8.21032 4.03893 8.20555L2.00032 8H2ZM2.07382 7.06136L4.12547 7.1794C4.19452 7.18322 4.25974 7.2179 4.29538 7.27709C4.3167 7.3124 4.32974 7.35854 4.31956 7.41709C4.30429 7.50363 4.24956 7.5485 4.19929 7.57204C4.15443 7.59272 4.1032 7.59591 4.05547 7.58318L2.07382 7.06136ZM2.29368 6.14594L4.30174 6.58344C4.3692 6.59808 4.42838 6.64263 4.45416 6.70658C4.46975 6.74476 4.47516 6.79249 4.45606 6.84849C4.42743 6.93154 4.36634 6.96749 4.31288 6.98245C4.26515 6.99613 4.21424 6.99104 4.16906 6.97099L2.29368 6.14562V6.14594ZM2.65387 5.27602L4.5687 6.02217C4.63297 6.0473 4.68452 6.10044 4.70011 6.16758C4.70934 6.20767 4.70743 6.25571 4.67975 6.30821C4.6387 6.38585 4.57252 6.41162 4.51747 6.41831C4.46847 6.42435 4.41884 6.41131 4.37716 6.38458L2.65387 5.27602ZM3.14578 4.47325L4.92029 5.50989C4.9798 5.54457 5.02243 5.60535 5.02721 5.67407C5.03007 5.71512 5.02084 5.76221 4.9852 5.80962C4.93239 5.87994 4.86302 5.89489 4.80766 5.89298C4.75834 5.89107 4.71125 5.87071 4.67434 5.83762L3.14578 4.47325ZM3.75733 3.75733L5.34793 5.0587C5.40139 5.1023 5.43384 5.1688 5.4278 5.23784C5.4243 5.27889 5.40775 5.32407 5.36512 5.36512C5.3018 5.42621 5.23116 5.43034 5.17675 5.41953C5.12807 5.40998 5.08511 5.3823 5.05361 5.34412L3.75733 3.75733ZM4.47325 3.14578L5.84048 4.68007C5.8863 4.73161 5.90826 4.80225 5.89139 4.86939C5.88153 4.90948 5.85798 4.95148 5.8093 4.98552C5.73739 5.03611 5.66676 5.02911 5.61457 5.01002C5.56812 4.99284 5.52994 4.95911 5.5048 4.91616L4.47261 3.1461L4.47325 3.14578ZM5.27603 2.65387L6.38649 4.3832C6.42372 4.44111 6.43422 4.51461 6.40717 4.57825C6.39094 4.61643 6.36135 4.65397 6.30821 4.68007C6.2293 4.71857 6.16058 4.70075 6.11221 4.6737C6.06894 4.64952 6.03649 4.61007 6.01867 4.56393L5.27603 2.65419V2.65387ZM6.14594 2.29368L6.97227 4.17543C6.99995 4.23874 6.99868 4.31256 6.9624 4.37111C6.94045 4.40611 6.90545 4.43888 6.84849 4.45606C6.76449 4.48184 6.69958 4.4532 6.65599 4.41915C6.61717 4.38861 6.59108 4.34438 6.58058 4.29602L6.14594 2.29368ZM7.06136 2.07382L7.58318 4.06152C7.60068 4.12833 7.58795 4.2012 7.54277 4.25338C7.51572 4.28456 7.47563 4.31129 7.41709 4.31956C7.3299 4.33197 7.2704 4.29347 7.23254 4.25306C7.19881 4.21679 7.18004 4.16906 7.17749 4.11974L7.06136 2.07382ZM8 2L8.20459 4.04497C8.21159 4.1137 8.18741 4.1837 8.13459 4.22824C8.10309 4.25465 8.0595 4.27502 8 4.27406C7.91218 4.27247 7.85904 4.22538 7.82818 4.17924C7.8005 4.1382 7.78968 4.08824 7.79445 4.03892L8 2.00032V2ZM7.06136 13.9262L7.58318 11.9385C7.60068 11.8717 7.58795 11.7988 7.54277 11.7466C7.51572 11.7154 7.47563 11.6887 7.41709 11.6804C7.3299 11.668 7.2704 11.7065 7.23254 11.7469C7.19881 11.7832 7.18004 11.8309 7.17749 11.8803L7.06136 13.9262ZM6.14594 13.7063L6.97227 11.8246C6.99995 11.7613 6.99868 11.6874 6.9624 11.6289C6.94045 11.5939 6.90545 11.5611 6.84849 11.5439C6.76449 11.5182 6.69958 11.5468 6.65599 11.5808C6.61717 11.6114 6.59108 11.6556 6.58058 11.704L6.14594 13.7063ZM5.27603 13.3461L6.38649 11.6168C6.42372 11.5589 6.43422 11.4854 6.40717 11.4218C6.39094 11.3836 6.36135 11.346 6.30821 11.3199C6.2293 11.2814 6.16058 11.2993 6.11221 11.3263C6.06894 11.3505 6.03649 11.3899 6.01867 11.4361L5.27603 13.3458V13.3461ZM4.47325 12.8542L5.84048 11.3199C5.8863 11.2684 5.90826 11.1978 5.89139 11.1306C5.88153 11.0905 5.85798 11.0485 5.8093 11.0145C5.73739 10.9639 5.66676 10.9709 5.61457 10.99C5.56812 11.0072 5.52994 11.0409 5.5048 11.0838L4.47261 12.8539L4.47325 12.8542ZM3.75733 12.2427L5.34793 10.9413C5.40139 10.8977 5.43384 10.8312 5.4278 10.7622C5.4243 10.7211 5.40775 10.6759 5.36512 10.6349C5.3018 10.5738 5.23116 10.5697 5.17675 10.5805C5.12807 10.59 5.08511 10.6177 5.05361 10.6559L3.75733 12.2427ZM3.14578 11.5268L4.92029 10.4901C4.9798 10.4554 5.02243 10.3947 5.02721 10.3259C5.03007 10.2849 5.02084 10.2378 4.9852 10.1904C4.93239 10.1201 4.86302 10.1051 4.80766 10.107C4.75834 10.1089 4.71125 10.1293 4.67434 10.1624L3.14578 11.5268ZM2.65387 10.724L4.5687 9.97783C4.63297 9.9527 4.68452 9.89956 4.70011 9.83242C4.70934 9.79233 4.70743 9.74429 4.67975 9.69179C4.6387 9.61415 4.57252 9.58838 4.51747 9.58169C4.46847 9.57565 4.41884 9.58869 4.37716 9.61542L2.65387 10.724ZM2.29368 9.85406L4.30174 9.41656C4.3692 9.40192 4.42838 9.35737 4.45416 9.29342C4.46975 9.25524 4.47516 9.20751 4.45606 9.15151C4.42743 9.06846 4.36634 9.03251 4.31288 9.01755C4.26515 9.00387 4.21424 9.00896 4.16906 9.02901L2.29368 9.85438V9.85406ZM2.07382 8.93864L4.12547 8.8206C4.19452 8.81678 4.25974 8.7821 4.29538 8.72291C4.3167 8.6876 4.32974 8.64146 4.31956 8.58291C4.30429 8.49637 4.24956 8.4515 4.19929 8.42796C4.15443 8.40728 4.1032 8.40409 4.05547 8.41682L2.07382 8.93864ZM8.93864 2.07382L8.8206 4.12547C8.81678 4.19452 8.7821 4.25974 8.72291 4.29538C8.6876 4.3167 8.64146 4.32975 8.58291 4.31956C8.49637 4.30429 8.4515 4.24956 8.42796 4.19929C8.40728 4.15443 8.40409 4.1032 8.41682 4.05547L8.93864 2.07382ZM9.85406 2.29368L9.41656 4.30174C9.40192 4.3692 9.35738 4.42838 9.29342 4.45415C9.25524 4.46975 9.20751 4.47515 9.15151 4.45606C9.06846 4.42743 9.03251 4.36634 9.01755 4.31288C9.00387 4.26515 9.00896 4.21424 9.02901 4.16906L9.85438 2.29368H9.85406ZM10.724 2.65387L9.97783 4.5687C9.9527 4.63297 9.89956 4.68452 9.83242 4.70011C9.79233 4.70934 9.74429 4.70743 9.69179 4.67975C9.61415 4.6387 9.58838 4.57252 9.58169 4.51747C9.57565 4.46847 9.58869 4.41884 9.61542 4.37715L10.724 2.65387ZM11.5268 3.14578L10.4901 4.9203C10.4554 4.9798 10.3947 5.02243 10.3259 5.02721C10.2849 5.03007 10.2378 5.02084 10.1904 4.9852C10.1201 4.93239 10.1051 4.86302 10.107 4.80766C10.1089 4.75834 10.1293 4.71125 10.1624 4.67434L11.5268 3.14578ZM12.2427 3.75733L10.9413 5.34793C10.8977 5.40139 10.8312 5.43384 10.7622 5.4278C10.7211 5.4243 10.6759 5.40775 10.6349 5.36512C10.5738 5.3018 10.5697 5.23116 10.5805 5.17675C10.59 5.12807 10.6177 5.08511 10.6559 5.05361L12.2427 3.75733ZM12.8542 4.47325L11.3199 5.84048C11.2684 5.8863 11.1978 5.90826 11.1306 5.89139C11.0905 5.88153 11.0485 5.85798 11.0145 5.8093C10.9639 5.73739 10.9709 5.66676 10.99 5.61457C11.0072 5.56812 11.0409 5.52994 11.0838 5.5048L12.8539 4.47261L12.8542 4.47325ZM13.3461 5.27602L11.6168 6.38649C11.5589 6.42371 11.4854 6.43422 11.4218 6.40717C11.3836 6.39094 11.346 6.36135 11.3199 6.30821C11.2814 6.2293 11.2993 6.16058 11.3263 6.11221C11.3505 6.06894 11.3899 6.03649 11.4361 6.01867L13.3458 5.27602H13.3461ZM13.7063 6.14594L11.8246 6.97227C11.7613 6.99995 11.6874 6.99868 11.6289 6.9624C11.5939 6.94045 11.5611 6.90545 11.5439 6.84849C11.5182 6.76449 11.5468 6.69958 11.5808 6.65599C11.6114 6.61717 11.6556 6.59108 11.704 6.58058L13.7063 6.14594ZM13.9262 7.06136L11.9385 7.58318C11.8717 7.60068 11.7988 7.58795 11.7466 7.54277C11.7154 7.51572 11.6887 7.47563 11.6804 7.41709C11.668 7.3299 11.7065 7.2704 11.7469 7.23254C11.7832 7.19881 11.8309 7.18004 11.8803 7.17749L13.9262 7.06136Z" fill="#FFFF00"/>
<path d="M8 12C10.2091 12 12 10.2091 12 8C12 5.79086 10.2091 4 8 4C5.79086 4 4 5.79086 4 8C4 10.2091 5.79086 12 8 12Z" fill="#FFFF00"/>
<path d="M7.98568 11.3337C9.82663 11.3337 11.319 9.84127 11.319 8.00033C11.319 6.15938 9.82663 4.66699 7.98568 4.66699C6.14473 4.66699 4.65234 6.15938 4.65234 8.00033C4.65234 9.84127 6.14473 11.3337 7.98568 11.3337Z" fill="#FF0000"/>
<path d="M7.98578 10.8881C9.63478 10.8881 10.9716 9.56086 10.9716 7.92357C10.9716 6.28627 9.63478 4.95898 7.98578 4.95898C6.33678 4.95898 5 6.28627 5 7.92357C5 9.56086 6.33678 10.8881 7.98578 10.8881Z" fill="#FFFF00"/>
<path d="M6.61531 5.27039L6.40986 5.15234L6.39103 5.42698C9.03965 6.11078 10.3432 8.16366 10.7736 9.03621L11.1161 8.84543L10.8964 8.58201C10.3959 7.57506 9.09394 5.99206 6.61531 5.27039ZM6.13322 5.62749L5.83792 5.54453L5.95728 5.80754C8.49546 6.52945 9.92458 8.52157 10.4135 9.74822L10.6667 9.67066L10.6301 9.40857C9.92012 7.98341 8.75763 6.41399 6.13322 5.62749ZM5.7508 5.97179L5.5111 5.90403L5.62989 6.13284C8.19249 7.07846 9.28608 8.80644 9.88976 10.2884L10.2092 10.2426L10.1598 10.0306C9.94955 9.60731 9.00276 7.00376 5.7508 5.97179ZM9.59764 10.5228C9.14766 9.32657 8.04638 7.3351 5.4744 6.33952L5.25781 6.29622L5.31407 6.54153C6.33782 6.7971 8.7158 8.55384 9.28237 10.678L9.5882 10.7165L9.59764 10.5228Z" fill="#FF0000" stroke="#FF0000" stroke-width="0.02"/>
<path d="M9.39922 5.27039L9.60467 5.15234L9.62351 5.42698C6.97488 6.11078 5.67136 8.16366 5.24089 9.03621L4.89844 8.84543L5.11811 8.58201C5.61859 7.57506 6.92059 5.99206 9.39922 5.27039ZM9.88131 5.62749L10.1766 5.54453L10.0573 5.80754C7.51907 6.52945 6.08995 8.52157 5.60099 9.74822L5.34782 9.67066L5.38445 9.40857C6.09441 7.98341 7.2569 6.41399 9.88131 5.62749ZM10.2637 5.97179L10.5034 5.90403L10.3846 6.13284C7.82204 7.07846 6.72846 8.80644 6.12478 10.2884L5.80537 10.2426L5.85468 10.0306C6.06499 9.60731 7.01178 7.00376 10.2637 5.97179ZM6.41689 10.5228C6.86687 9.32657 7.96816 7.3351 10.5401 6.33952L10.7567 6.29622L10.7005 6.54153C9.67671 6.7971 7.29874 8.55384 6.73216 10.678L6.42633 10.7165L6.41689 10.5228Z" fill="#FF0000" stroke="#FF0000" stroke-width="0.02"/>
</g>
<defs>
<clipPath id="clip0_280_1128">
<rect width="16" height="16" rx="4" fill="white"/>
</clipPath>
</defs>
</svg>
