<svg width="16" height="16" viewBox="0 0 16 16" fill="none" xmlns="http://www.w3.org/2000/svg">
<g clip-path="url(#clip0_280_1174)">
<rect width="16" height="16" fill="#EEEEEE"/>
<path d="M0 3.8261V1.73914H16V3.8261H0Z" fill="#D80027"/>
<path d="M0 8.00002V5.91305H16V8.00002H0Z" fill="#D80027"/>
<path d="M0 12.1739V10.087H16V12.1739H0Z" fill="#D80027"/>
<path d="M0 16H16V14.2609H0V16Z" fill="#D80027"/>
<rect width="8" height="8" fill="#0052B4"/>
<path fill-rule="evenodd" clip-rule="evenodd" d="M1.3992 0.200195L1.66862 1.02937H2.54047L1.83513 1.54184L2.10454 2.37102L1.3992 1.85855L0.69386 2.37102L0.963277 1.54184L0.257935 1.02937H1.12979L1.3992 0.200195ZM4.00077 0.200195L4.27018 1.02937H5.14203L4.43669 1.54184L4.70611 2.37102L4.00077 1.85855L3.29542 2.37102L3.56484 1.54184L2.8595 1.02937H3.73135L4.00077 0.200195ZM6.86979 1.02937L6.60037 0.200195L6.33096 1.02937H5.45911L6.16445 1.54184L5.89503 2.37102L6.60037 1.85855L7.30572 2.37102L7.0363 1.54184L7.74164 1.02937H6.86979ZM1.3992 2.7998L1.66862 3.62898H2.54047L1.83513 4.14145L2.10454 4.97062L1.3992 4.45816L0.69386 4.97062L0.963277 4.14145L0.257935 3.62898H1.12979L1.3992 2.7998ZM4.27018 3.62898L4.00077 2.7998L3.73135 3.62898H2.8595L3.56484 4.14145L3.29542 4.97062L4.00077 4.45816L4.70611 4.97062L4.43669 4.14145L5.14203 3.62898H4.27018ZM6.60037 2.7998L6.86979 3.62898H7.74164L7.0363 4.14145L7.30572 4.97062L6.60037 4.45816L5.89503 4.97062L6.16445 4.14145L5.45911 3.62898H6.33096L6.60037 2.7998ZM1.66862 6.22957L1.3992 5.40039L1.12979 6.22957H0.257935L0.963277 6.74203L0.69386 7.57121L1.3992 7.05875L2.10454 7.57121L1.83513 6.74203L2.54047 6.22957H1.66862ZM4.00077 5.40039L4.27018 6.22957H5.14203L4.43669 6.74203L4.70611 7.57121L4.00077 7.05875L3.29542 7.57121L3.56484 6.74203L2.8595 6.22957H3.73135L4.00077 5.40039ZM6.86979 6.22957L6.60037 5.40039L6.33096 6.22957H5.45911L6.16445 6.74203L5.89503 7.57121L6.60037 7.05875L7.30572 7.57121L7.0363 6.74203L7.74164 6.22957H6.86979Z" fill="#EEEEEE"/>
</g>
<defs>
<clipPath id="clip0_280_1174">
<rect width="16" height="16" rx="4" fill="white"/>
</clipPath>
</defs>
</svg>
