<svg width="16" height="16" viewBox="0 0 16 16" fill="none" xmlns="http://www.w3.org/2000/svg">
<g clip-path="url(#clip0_280_1114)">
<path d="M0 0H16V16H0V0Z" fill="#D80027"/>
<path d="M9.44376 4.425L9.50626 3.59063L8.96564 4.23125L8.18751 3.91563L8.63126 4.625L8.09064 5.26563L8.90626 5.06563L9.34689 5.77813L9.40626 4.94063L10.2219 4.74063L9.44376 4.425Z" fill="#FFDA44"/>
<path d="M4.37813 4.86875L5.06875 6.99375H7.30313L5.49687 8.30938L6.1875 10.4344L4.37813 9.12188L2.56875 10.4344L3.2625 8.30938L1.45313 6.99375H3.6875L4.37813 4.86875Z" fill="#FFDA44"/>
<path d="M9.48435 12.3906L8.95623 11.7406L8.17498 12.0438L8.6281 11.3406L8.09998 10.6875L8.90935 10.9031L9.3656 10.2L9.40935 11.0375L10.2219 11.2531L9.43747 11.5531L9.48435 12.3906Z" fill="#FFDA44"/>
<path d="M10.7844 9.68438L10.5344 10.4844L11.2062 9.98125L11.8906 10.4656L11.6219 9.67188L12.2937 9.17188L11.4562 9.18125L11.1844 8.3875L10.9375 9.1875L10.1 9.2L10.7844 9.68438Z" fill="#FFDA44"/>
<path d="M11.95 5.87188L11.5813 6.625L12.1813 7.20938L11.3531 7.09063L10.9844 7.84063L10.8407 7.01563L10.0094 6.89688L10.7531 6.50625L10.6094 5.67813L11.2094 6.2625L11.95 5.87188Z" fill="#FFDA44"/>
</g>
<defs>
<clipPath id="clip0_280_1114">
<rect width="16" height="16" rx="4" fill="white"/>
</clipPath>
</defs>
</svg>
