<svg width="16" height="16" viewBox="0 0 16 16" fill="none" xmlns="http://www.w3.org/2000/svg">
<g clip-path="url(#clip0_280_1743)">
<rect width="16" height="16" fill="#EEEEEE"/>
<path d="M16 9V7H9V0H7V7H0V9H7V16H9V9H16Z" fill="#D80027"/>
<path fill-rule="evenodd" clip-rule="evenodd" d="M12 2V3H11V4H12V5H13V4H14V3H13V2H12ZM3 12V11H4V12H5V13H4V14H3V13H2V12H3ZM12 12V11H13V12H14V13H13V14H12V13H11V12H12ZM3 3V2H4V3H5V4H4V5H3V4H2V3H3Z" fill="#D80027"/>
</g>
<defs>
<clipPath id="clip0_280_1743">
<rect width="16" height="16" rx="4" fill="white"/>
</clipPath>
</defs>
</svg>
