<svg width="16" height="16" viewBox="0 0 16 16" fill="none" xmlns="http://www.w3.org/2000/svg">
<g clip-path="url(#clip0_280_1110)">
<path d="M0 4.25H16V11.75H0V4.25Z" fill="#EF3340"/>
<path d="M0 10.75H16V16H0V10.75Z" fill="#509E2F"/>
<path d="M0 0H16V5.25H0V0Z" fill="#00B5E2"/>
<path d="M8.15625 10.0313C7.03443 10.0313 6.12498 9.12185 6.12498 8.00003C6.12498 6.87821 7.03443 5.96876 8.15625 5.96876C8.50602 5.96876 8.83516 6.0572 9.12249 6.21291C8.6717 5.77209 8.05526 5.5 7.375 5.5C5.99426 5.5 4.875 6.61929 4.875 8C4.875 9.38071 5.99429 10.5 7.375 10.5C8.05528 10.5 8.67173 10.2279 9.12249 9.78709C8.83516 9.94285 8.50602 10.0313 8.15625 10.0313Z" fill="white"/>
<path d="M9.71872 6.59377L9.98778 7.35046L10.7131 7.00562L10.3683 7.73095L11.125 8.00003L10.3683 8.26911L10.7131 8.99444L9.98778 8.6496L9.71872 9.40629L9.4497 8.6496L8.72434 8.99444L9.06918 8.26911L8.31246 8.00003L9.06918 7.73095L8.72434 7.00562L9.4497 7.35046L9.71872 6.59377Z" fill="white"/>
</g>
<defs>
<clipPath id="clip0_280_1110">
<rect width="16" height="16" rx="4" fill="white"/>
</clipPath>
</defs>
</svg>
