<svg width="16" height="16" viewBox="0 0 16 16" fill="none" xmlns="http://www.w3.org/2000/svg">
<g clip-path="url(#clip0_280_1140)">
<rect width="16" height="16" fill="#00A6C8"/>
<path d="M8.0035 8.84817C8.95645 8.84817 9.72898 8.05918 9.72898 7.08592C9.72898 6.11265 8.95645 5.32366 8.0035 5.32366C7.05054 5.32366 6.27802 6.11265 6.27802 7.08592C6.27802 8.05918 7.05054 8.84817 8.0035 8.84817Z" fill="#FFE700"/>
<path d="M8.00337 5.08316C8.10597 5.08185 8.14444 5.01636 8.14444 4.93777C8.14444 4.833 8.00337 4.33398 8.00337 4.33398C8.00337 4.33398 7.86231 4.833 7.86231 4.93777C7.86231 5.01636 7.90078 5.08316 8.00337 5.08316Z" fill="#FFE700"/>
<path d="M9.96409 7.0856C9.96538 7.19038 10.0295 7.22967 10.1064 7.22967C10.209 7.22967 10.6976 7.0856 10.6976 7.0856C10.6976 7.0856 10.209 6.94153 10.1064 6.94153C10.0295 6.94153 9.96409 6.98082 9.96409 7.0856Z" fill="#FFE700"/>
<path d="M8.00344 9.08854C7.90085 9.08985 7.86237 9.15533 7.86237 9.23392C7.86237 9.3387 8.00344 9.83771 8.00344 9.83771C8.00344 9.83771 8.1445 9.3387 8.1445 9.23392C8.1445 9.15533 8.10603 9.08854 8.00344 9.08854Z" fill="#FFE700"/>
<path d="M6.04272 7.08567C6.04144 6.98089 5.97731 6.9416 5.90037 6.9416C5.79778 6.9416 5.30918 7.08567 5.30918 7.08567C5.30918 7.08567 5.79778 7.22974 5.90037 7.22974C5.97731 7.22974 6.04272 7.19045 6.04272 7.08567Z" fill="#FFE700"/>
<path d="M8.75395 5.23615C8.84922 5.27504 8.9093 5.22958 8.93875 5.15697C8.97801 5.06017 9.03466 4.54401 9.03466 4.54401C9.03466 4.54401 8.71736 4.9499 8.6781 5.04671C8.64865 5.11931 8.65917 5.19606 8.75395 5.23615Z" fill="#FFE700"/>
<path d="M9.81407 7.85265C9.77599 7.94996 9.82051 8.01132 9.89159 8.04139C9.98638 8.08149 10.4918 8.13935 10.4918 8.13935C10.4918 8.13935 10.0943 7.81528 9.99956 7.77518C9.92847 7.74511 9.85333 7.75585 9.81407 7.85265Z" fill="#FFE700"/>
<path d="M7.253 8.93622C7.15773 8.89733 7.09765 8.9428 7.0682 9.0154C7.02894 9.1122 6.97229 9.62836 6.97229 9.62836C6.97229 9.62836 7.2896 9.22247 7.32886 9.12567C7.3583 9.05307 7.34779 8.97632 7.253 8.93622Z" fill="#FFE700"/>
<path d="M6.19122 6.31972C6.22929 6.22241 6.18478 6.16105 6.11369 6.13098C6.0189 6.09088 5.51352 6.03302 5.51352 6.03302C5.51352 6.03302 5.91094 6.35709 6.00572 6.39719C6.07681 6.42726 6.15196 6.41652 6.19122 6.31972Z" fill="#FFE700"/>
<path d="M9.38923 5.67005C9.46268 5.74321 9.53523 5.72469 9.58964 5.66912C9.66218 5.59503 9.90792 5.1403 9.90792 5.1403C9.90792 5.1403 9.46268 5.39128 9.39014 5.46537C9.33573 5.52094 9.31669 5.59596 9.38923 5.67005Z" fill="#FFE700"/>
<path d="M9.39011 8.50184C9.31848 8.57685 9.33661 8.65094 9.39102 8.70651C9.46356 8.7806 9.9088 9.03158 9.9088 9.03158C9.9088 9.03158 9.66306 8.57685 9.59052 8.50276C9.53611 8.44719 9.46266 8.42775 9.39011 8.50184Z" fill="#FFE700"/>
<path d="M6.617 8.50188C6.54355 8.42872 6.47101 8.44724 6.4166 8.50281C6.34406 8.5769 6.09831 9.03163 6.09831 9.03163C6.09831 9.03163 6.54355 8.78065 6.6161 8.70656C6.6705 8.65099 6.68955 8.57597 6.617 8.50188Z" fill="#FFE700"/>
<path d="M6.61612 5.66967C6.68776 5.59465 6.66962 5.52056 6.61522 5.46499C6.54267 5.3909 6.09743 5.13992 6.09743 5.13992C6.09743 5.13992 6.34318 5.59465 6.41572 5.66874C6.47013 5.72431 6.54358 5.74376 6.61612 5.66967Z" fill="#FFE700"/>
<path d="M9.81536 6.31989C9.85581 6.41619 9.92977 6.42743 10.0009 6.39736C10.0956 6.35726 10.4931 6.03319 10.4931 6.03319C10.4931 6.03319 9.98768 6.09105 9.89289 6.13115C9.82181 6.16122 9.7761 6.22308 9.81536 6.31989Z" fill="#FFE700"/>
<path d="M8.75398 8.93649C8.65969 8.9778 8.64868 9.05334 8.67813 9.12594C8.71739 9.22274 9.0347 9.62863 9.0347 9.62863C9.0347 9.62863 8.97804 9.11247 8.93878 9.01567C8.90934 8.94307 8.84877 8.89639 8.75398 8.93649Z" fill="#FFE700"/>
<path d="M6.19199 7.85249C6.15154 7.75618 6.07758 7.74494 6.00649 7.77502C5.91171 7.81511 5.51429 8.13918 5.51429 8.13918C5.51429 8.13918 6.01967 8.08132 6.11446 8.04123C6.18554 8.01115 6.23125 7.94929 6.19199 7.85249Z" fill="#FFE700"/>
<path d="M7.25337 5.23588C7.34766 5.19458 7.35867 5.11904 7.32922 5.04644C7.28996 4.94963 6.97265 4.54374 6.97265 4.54374C6.97265 4.54374 7.02931 5.0599 7.06857 5.1567C7.09801 5.22931 7.15858 5.27598 7.25337 5.23588Z" fill="#FFE700"/>
<path d="M8.38477 5.12215C8.48564 5.14131 8.53588 5.08474 8.55089 5.00767C8.57091 4.9049 8.52788 4.38737 8.52788 4.38737C8.52788 4.38737 8.2942 4.84869 8.27419 4.95145C8.25917 5.02853 8.28415 5.10171 8.38477 5.12215Z" fill="#FFE700"/>
<path d="M9.92518 7.47698C9.90642 7.58 9.9618 7.63132 10.0373 7.64665C10.1379 7.66709 10.6446 7.62314 10.6446 7.62314C10.6446 7.62314 10.1929 7.38448 10.0923 7.36404C10.0168 7.34871 9.94519 7.37422 9.92518 7.47698Z" fill="#FFE700"/>
<path d="M7.61948 9.05065C7.51861 9.03149 7.46837 9.08806 7.45336 9.16513C7.43334 9.2679 7.47638 9.78543 7.47638 9.78543C7.47638 9.78543 7.71005 9.32411 7.73007 9.22134C7.74508 9.14427 7.72011 9.07109 7.61948 9.05065Z" fill="#FFE700"/>
<path d="M6.07908 6.69581C6.09783 6.59279 6.04245 6.54148 5.96698 6.52615C5.86636 6.50571 5.35963 6.54966 5.35963 6.54966C5.35963 6.54966 5.81132 6.78831 5.91194 6.80875C5.98741 6.82409 6.05906 6.79858 6.07908 6.69581Z" fill="#FFE700"/>
<path d="M9.08958 5.42095C9.1756 5.47807 9.24321 5.44545 9.28596 5.38011C9.34296 5.29299 9.49712 4.79803 9.49712 4.79803C9.49712 4.79803 9.10837 5.1329 9.05138 5.22002C9.00863 5.28536 9.00428 5.36273 9.08958 5.42095Z" fill="#FFE700"/>
<path d="M9.63164 8.19858C9.57571 8.28643 9.60765 8.35548 9.67162 8.39914C9.75693 8.45735 10.2416 8.6148 10.2416 8.6148C10.2416 8.6148 9.91367 8.21777 9.82837 8.15956C9.76439 8.1159 9.68863 8.11146 9.63164 8.19858Z" fill="#FFE700"/>
<path d="M6.91155 8.75133C6.82554 8.69421 6.75792 8.72683 6.71518 8.79217C6.65818 8.87929 6.50402 9.37425 6.50402 9.37425C6.50402 9.37425 6.89276 9.03938 6.94976 8.95226C6.99251 8.88692 6.99685 8.80955 6.91155 8.75133Z" fill="#FFE700"/>
<path d="M6.3695 5.9737C6.42543 5.88585 6.39349 5.8168 6.32951 5.77314C6.24421 5.71493 5.75958 5.55748 5.75958 5.55748C5.75958 5.55748 6.08747 5.95451 6.17277 6.01272C6.23675 6.05638 6.3125 6.06082 6.3695 5.9737Z" fill="#FFE700"/>
<path d="M9.63334 5.97367C9.6914 6.06007 9.76609 6.05636 9.83007 6.0127C9.91537 5.95448 10.2433 5.55746 10.2433 5.55746C10.2433 5.55746 9.75863 5.7149 9.67332 5.77311C9.60935 5.81677 9.57634 5.88655 9.63334 5.97367Z" fill="#FFE700"/>
<path d="M9.09236 8.75111C9.00777 8.81041 9.01141 8.88669 9.05415 8.95203C9.11115 9.03915 9.49989 9.37402 9.49989 9.37402C9.49989 9.37402 9.34573 8.87907 9.28874 8.79195C9.24599 8.72661 9.17766 8.6929 9.09236 8.75111Z" fill="#FFE700"/>
<path d="M6.37163 8.19861C6.31357 8.11221 6.23888 8.11592 6.17491 8.15958C6.0896 8.2178 5.76172 8.61482 5.76172 8.61482C5.76172 8.61482 6.24635 8.45738 6.33165 8.39917C6.39563 8.35551 6.42863 8.28573 6.37163 8.19861Z" fill="#FFE700"/>
<path d="M6.91261 5.42117C6.9972 5.36187 6.99356 5.28559 6.95082 5.22025C6.89382 5.13313 6.50508 4.79826 6.50508 4.79826C6.50508 4.79826 6.65924 5.29321 6.71623 5.38033C6.75898 5.44567 6.82731 5.47938 6.91261 5.42117Z" fill="#FFE700"/>
<path d="M9.92391 6.69575C9.94519 6.79826 10.0156 6.82402 10.091 6.80869C10.1917 6.78825 10.6434 6.5496 10.6434 6.5496C10.6434 6.5496 10.1366 6.50564 10.036 6.52609C9.96054 6.54142 9.9039 6.59299 9.92391 6.69575Z" fill="#FFE700"/>
<path d="M8.38405 9.05058C8.28368 9.07231 8.25845 9.14421 8.27346 9.22128C8.29348 9.32405 8.52715 9.78536 8.52715 9.78536C8.52715 9.78536 8.57019 9.26783 8.55017 9.16507C8.53516 9.08799 8.48467 9.03014 8.38405 9.05058Z" fill="#FFE700"/>
<path d="M6.07794 7.47705C6.05667 7.37453 5.98627 7.34877 5.91081 7.3641C5.81018 7.38455 5.3585 7.6232 5.3585 7.6232C5.3585 7.6232 5.86523 7.66715 5.96585 7.64671C6.04131 7.63138 6.09795 7.57981 6.07794 7.47705Z" fill="#FFE700"/>
<path d="M7.61948 5.12221C7.71985 5.10049 7.74507 5.02859 7.73006 4.95152C7.71004 4.84875 7.47637 4.38744 7.47637 4.38744C7.47637 4.38744 7.43334 4.90497 7.45335 5.00773C7.46836 5.08481 7.51885 5.14265 7.61948 5.12221Z" fill="#FFE700"/>
<path d="M7.69563 10.9034C7.64946 10.906 7.60458 10.9121 7.56054 10.9265C7.50027 10.9348 7.44256 10.9562 7.38272 10.9662L7.35878 10.9702L7.3186 10.9741C7.32117 10.9854 7.32287 10.9968 7.32287 11.0082C7.32287 11.0199 7.32159 11.0313 7.3186 11.0409C7.31604 11.0501 7.30791 11.0614 7.30149 11.0684C7.29295 11.078 7.28398 11.0863 7.27328 11.0915C7.26302 11.0968 7.25148 11.099 7.23994 11.0998C7.2284 11.1003 7.21643 11.0998 7.20531 11.0955C7.19377 11.0915 7.18309 11.0841 7.17325 11.0754C7.16129 11.0784 7.14889 11.0806 7.13735 11.0819C7.12538 11.0832 7.11426 11.0832 7.10358 11.0819C7.09161 11.0784 7.07921 11.0745 7.06767 11.0697C7.05605 11.0648 7.04489 11.0588 7.03433 11.0518C6.99073 11.078 6.942 11.1029 6.91549 11.1487C6.90054 11.1697 6.89753 11.1937 6.89412 11.2186C6.89198 11.2491 6.89968 11.2814 6.9125 11.3098C6.91721 11.3181 6.92105 11.2797 6.93558 11.2745C6.95995 11.2539 6.9903 11.2391 7.02108 11.2308C7.04715 11.2173 7.04373 11.2317 7.03305 11.2526C7.03048 11.2636 7.01595 11.305 7.03561 11.2841C7.12239 11.2448 7.21857 11.2369 7.31219 11.2295C7.44812 11.2151 7.58448 11.212 7.72084 11.2103C7.84908 11.212 7.97732 11.2138 8.10556 11.2186C8.1667 11.2203 8.22825 11.2343 8.28852 11.2238C8.30305 11.2199 8.32571 11.219 8.33427 11.2103C8.3069 11.1941 8.27484 11.1937 8.2445 11.1898H7.99998C7.93201 11.1828 7.86106 11.1819 7.79694 11.1557C7.77983 11.1487 7.76402 11.1321 7.74777 11.15C7.72341 11.1588 7.69733 11.1649 7.67169 11.1666C7.6268 11.1701 7.58192 11.1605 7.54046 11.1435C7.57038 11.1011 7.60628 11.064 7.6392 11.0247C7.6127 11.0204 7.58705 11.0147 7.56054 11.0082C7.60714 10.9754 7.65031 10.9383 7.69563 10.9034Z" fill="#FFE700"/>
<path d="M9.69379 11.3558C9.60088 11.4128 9.52997 11.3118 9.4523 11.2815C9.39684 11.3123 9.39166 11.4152 9.33984 11.4639C9.27783 11.536 9.20185 11.4438 9.20751 11.3727C9.13336 11.4365 9.09586 11.5812 8.97594 11.5619C8.91913 11.5146 8.87693 11.4152 8.83352 11.5283C8.79812 11.5836 8.70387 11.6623 8.65506 11.5788C8.63995 11.5051 8.60376 11.4184 8.56448 11.5355C8.53752 11.6183 8.45099 11.6793 8.36726 11.643C8.32143 11.6047 8.404 11.4632 8.34566 11.4733C8.25846 11.5322 8.20777 11.6784 8.08608 11.6667C8.03882 11.6125 8.11475 11.5207 8.06292 11.4606C8.00175 11.5408 7.93387 11.6582 7.82805 11.6667C7.7769 11.6243 7.83006 11.5029 7.7974 11.485C7.68881 11.5515 7.57424 11.67 7.43768 11.6329C7.4909 11.425 7.71327 11.352 7.90028 11.3358C8.22203 11.2954 8.56052 11.3697 8.87009 11.2511C8.92011 11.22 9.04129 11.1759 8.99814 11.1038C8.95992 11.0469 9.09757 11.0692 9.1108 11.0027C9.1026 10.9185 9.17398 10.93 9.24371 10.9227C9.55631 10.9089 9.8651 10.9761 10.1768 10.9876C10.2003 11.1427 10.0319 11.2516 9.89622 11.2037C9.83144 11.2144 9.73429 11.0515 9.75334 11.17C9.74028 11.2322 9.74943 11.3143 9.69379 11.3558ZM7.03408 11.0383C7.10645 11.1059 7.15719 11.0255 7.22484 10.9961C7.45172 10.9164 7.64967 10.7772 7.84483 10.638C7.96307 10.5381 8.06559 10.4085 8.22439 10.376C8.53415 10.2804 8.86344 10.292 9.17439 10.2037C9.41119 9.87262 9.81337 9.7545 10.1503 9.56418C10.2259 9.54017 10.2551 9.47658 10.2793 9.40638C10.4079 9.19905 10.5831 9.01533 10.7903 8.88983C10.8883 8.83513 11.0053 8.80363 11.1162 8.82864C11.1083 8.96364 11.0325 9.08328 10.9409 9.17664C11.0158 9.17496 11.0802 9.12662 11.1559 9.12935C11.1819 9.26789 11.0354 9.3404 10.9574 9.42666C11.0009 9.43696 11.1672 9.44981 11.0765 9.49423C10.961 9.57608 10.8292 9.63229 10.7226 9.72735C10.8209 9.7454 10.8321 9.76674 10.7321 9.80308C10.678 9.84056 10.5738 9.85366 10.5638 9.92668C10.6381 9.97332 10.5296 10.0196 10.4877 10.0348C10.4076 10.0538 10.3236 10.0893 10.4299 10.1515C10.3897 10.2135 10.3034 10.2268 10.233 10.2206C10.2543 10.2909 10.2853 10.3696 10.1959 10.4007C9.99552 10.5554 9.76038 10.6679 9.50851 10.6936C9.82315 10.7183 10.1472 10.6587 10.4161 10.4839C10.4516 10.4411 10.6377 10.395 10.5336 10.3589C10.4846 10.3381 10.3795 10.315 10.3724 10.2768C10.518 10.185 10.7015 10.2177 10.8582 10.1632C10.8622 10.1114 10.739 10.1258 10.6931 10.114C10.5835 10.1048 10.59 10.0763 10.6956 10.0657C10.8293 10.0295 10.9806 10.0224 11.0931 9.93343C11.0015 9.89012 10.8864 9.92825 10.7887 9.89289C10.9543 9.81889 11.1496 9.81146 11.2982 9.7003C11.3658 9.62342 11.2115 9.64744 11.1665 9.64931C11.0748 9.66562 11.0324 9.62079 11.1366 9.58187C11.3145 9.44793 11.5397 9.36092 11.6646 9.16673C11.6942 9.12326 11.7343 8.99228 11.6399 9.03939C11.5158 9.08155 11.4065 9.22408 11.2651 9.17999C11.5438 8.95938 11.809 8.70823 11.9995 8.40292C12.0093 8.31487 11.874 8.30535 11.8388 8.37448C11.6597 8.55069 11.4977 8.75869 11.2684 8.86917C11.488 8.65273 11.6695 8.39645 11.8279 8.13084C11.8618 8.05184 11.9531 7.95683 11.9036 7.86911C11.8237 7.80162 11.7238 7.8634 11.6824 7.94416C11.5432 8.12975 11.4375 8.34637 11.2585 8.49753C11.4152 8.19208 11.5774 7.86693 11.5814 7.51462C11.5809 7.44209 11.5666 7.33526 11.4702 7.34881C11.3937 7.36281 11.4119 7.47968 11.3804 7.53878C11.311 7.77947 11.2784 8.04014 11.1361 8.25089C11.1681 8.05531 11.2241 7.85142 11.1811 7.65391C11.161 7.56565 11.0215 7.60362 11.0394 7.69098C10.8727 8.55357 10.306 9.30798 9.5648 9.74439C9.22542 9.94049 8.84635 10.0669 8.4607 10.1242C8.35695 10.1474 8.24474 10.1338 8.14558 10.1699C7.90531 10.3581 7.75983 10.673 7.45562 10.7716C7.31928 10.8408 7.14148 10.8548 7.04399 10.9842C7.03556 11.0007 7.03375 11.0199 7.03408 11.0383Z" fill="#FFE700"/>
<path d="M7.94387 10.163C7.89898 10.2462 7.87256 10.3419 7.81486 10.4164C7.64121 10.255 7.38947 10.2603 7.1692 10.2496C6.9874 10.2397 6.78969 10.2225 6.64902 10.0901C6.50104 9.96632 6.38025 9.80558 6.2149 9.70514C6.06397 9.66323 5.91183 9.61079 5.79048 9.50513C5.53118 9.28926 5.38268 8.96896 5.1293 8.74636C5.08099 8.69779 5.02403 8.66016 4.96991 8.61896C4.91849 8.63175 4.94176 8.7451 4.87883 8.68733C4.84459 8.66244 4.75895 8.66002 4.75123 8.69478C4.8287 8.79903 4.90625 8.91808 4.91699 9.05142C4.86415 9.05695 4.77021 9.04003 4.74403 9.06012C4.81419 9.16752 4.90412 9.26277 5.00631 9.33861C4.95729 9.34665 4.86071 9.34228 4.84193 9.36245C4.94335 9.44687 5.05211 9.53316 5.18493 9.55485C5.21212 9.59144 5.14518 9.66211 5.20147 9.69336C5.23411 9.70699 5.34182 9.72978 5.26763 9.76769C5.21672 9.80273 5.23561 9.88439 5.30072 9.88256C5.34189 9.90404 5.43431 9.90929 5.44154 9.94647C5.40506 9.98439 5.29153 10.0294 5.38816 10.0649C5.47842 10.116 5.58138 10.1492 5.68446 10.1528C5.63272 10.1973 5.56899 10.2225 5.51574 10.2643C5.75363 10.4068 6.01733 10.5005 6.27792 10.5907C6.38166 10.6261 6.48661 10.6591 6.59416 10.6799C6.28166 10.6615 5.97961 10.567 5.695 10.4377C5.54748 10.3716 5.39897 10.3078 5.24778 10.2508C5.31407 10.2156 5.39075 10.207 5.4595 10.1765C5.31679 10.1473 5.16089 10.1377 5.03544 10.0576C5.05468 10.0226 5.12756 10.0209 5.16786 10.0031C5.24367 9.98455 5.29069 9.96204 5.1838 9.95531C5.07602 9.92544 4.95239 9.93885 4.8574 9.87243C4.86352 9.83262 4.96293 9.8465 5.00342 9.8293C5.05441 9.82036 5.11109 9.81287 5.15183 9.77783C4.9852 9.70727 4.76724 9.75727 4.63672 9.60698C4.60662 9.54971 4.73019 9.59584 4.76538 9.58629C4.8548 9.58629 4.95091 9.61532 5.03606 9.5785C4.79325 9.46962 4.53316 9.3677 4.34798 9.16631C4.32742 9.13394 4.26582 9.04549 4.31552 9.03455C4.45965 9.05403 4.56398 9.21468 4.71815 9.18968C4.73863 9.16148 4.62858 9.11527 4.60112 9.07497C4.37633 8.87797 4.15817 8.66418 4.00063 8.40614C3.98979 8.31996 4.12242 8.30706 4.15734 8.37361C4.32925 8.54271 4.48453 8.74003 4.69864 8.85547C4.77461 8.8931 4.65502 8.81094 4.63909 8.78114C4.44125 8.54652 4.25292 8.29871 4.11465 8.02239C4.0899 7.97259 4.04888 7.88243 4.12293 7.85592C4.19696 7.81804 4.27042 7.86964 4.30796 7.93459C4.45341 8.12195 4.56044 8.34463 4.74163 8.50073C4.58727 8.19479 4.42245 7.87273 4.41846 7.52068C4.42209 7.45244 4.42639 7.3492 4.517 7.35201C4.59309 7.34022 4.58107 7.43971 4.606 7.48715C4.68097 7.74578 4.71366 8.02573 4.86405 8.25408C4.83083 8.06221 4.78193 7.86463 4.81442 7.66958C4.82191 7.60553 4.8925 7.58615 4.93858 7.62487C4.97584 7.71799 4.98359 7.83298 5.01754 7.93254C5.21067 8.60732 5.64432 9.20078 6.20942 9.59905C6.67483 9.92506 7.22717 10.1197 7.79089 10.1536C7.8418 10.1581 7.89288 10.1598 7.94387 10.163Z" fill="#FFE700"/>
<path d="M7.22803 11.0579C7.24479 11.0579 7.25838 11.044 7.25838 11.0269C7.25838 11.0098 7.24479 10.9959 7.22803 10.9959C7.21126 10.9959 7.19767 11.0098 7.19767 11.0269C7.19767 11.044 7.21126 11.0579 7.22803 11.0579Z" fill="#FFE700"/>
<path d="M7.22507 11.0344C7.23191 11.0344 7.23745 11.0287 7.23745 11.0217C7.23745 11.0148 7.23191 11.0091 7.22507 11.0091C7.21824 11.0091 7.2127 11.0148 7.2127 11.0217C7.2127 11.0287 7.21824 11.0344 7.22507 11.0344Z" fill="#FFE700"/>
<path d="M1.3319 0.962325C1.3319 0.962325 1.22517 0.82925 1.18892 0.896002C1.13061 1.00336 1.36818 1.53811 1.36818 1.72642C1.36818 2.03553 1.22916 2.11958 1.0575 2.16373C0.942318 2.19336 0.754755 2.15134 0.754755 2.15134C0.790073 2.08093 0.813041 2.06018 0.872548 2.05456C0.806299 2.00353 0.73884 1.89275 0.73884 1.72032C0.73884 1.4544 0.812619 1.34479 0.812619 1.04501C0.812619 0.8787 0.720703 0.666992 0.720703 0.666992C0.883177 0.691116 0.963698 0.914309 0.917884 1.09268C0.94374 1.0982 0.967218 1.08955 0.987387 1.06121C0.999271 1.11064 0.980501 1.16804 0.955368 1.21749C0.975615 1.23353 0.990486 1.22391 1.02274 1.21403C1.01967 1.26497 0.999104 1.31909 0.948771 1.37004C1.09483 1.31377 1.1847 1.4648 1.1847 1.62292C1.1847 1.74236 1.12829 1.82796 1.07315 1.82796C1.05534 1.82796 1.02916 1.81707 1.0144 1.8007C1.00398 1.83358 1.00934 1.87757 1.02006 1.91045C0.979657 1.89459 0.954002 1.85899 0.972261 1.78487C0.941218 1.78063 0.916529 1.76508 0.899736 1.73543C0.916751 1.70309 0.942573 1.68447 0.972261 1.68598C0.949659 1.61678 0.974848 1.57805 1.01155 1.54665C1.01155 1.54665 0.988209 1.68598 1.04782 1.68598C1.07462 1.68598 1.09904 1.67303 1.09904 1.61442C1.09904 1.56339 1.06897 1.4927 0.99946 1.4972C0.929957 1.5017 0.873603 1.5683 0.873603 1.73293C0.873603 1.88479 0.956168 1.96032 1.06496 1.9652C1.16307 1.9697 1.23711 1.89085 1.23711 1.74069C1.23711 1.54085 1.04266 1.08532 1.04266 0.90724C1.04266 0.773604 1.12365 0.699025 1.20289 0.699025C1.30565 0.699025 1.39234 0.849979 1.39234 0.849979L1.33198 0.962276L1.3319 0.962325Z" fill="#FFE700"/>
<path d="M1.35485 4.57435C1.35485 4.90835 1.15274 5.08002 0.993918 5.08002C0.779944 5.08002 0.666016 4.89021 0.666016 4.64174C0.666016 4.50089 0.683408 4.41252 0.727178 4.27771C0.727178 4.27771 1.08014 3.18867 1.21755 2.76746C1.23469 2.71493 1.24022 2.65512 1.24022 2.56745C1.24022 2.43206 1.1517 2.32139 1.05889 2.318C0.974282 2.31486 0.8821 2.43502 0.8821 2.57195C0.8821 2.73826 0.940252 2.81241 0.99996 2.81241C1.07344 2.81241 1.10271 2.76759 1.10271 2.69106C1.10271 2.63772 1.08536 2.61465 1.0604 2.61465C0.997383 2.61465 1.01508 2.74051 1.01508 2.74051C0.983778 2.73034 0.958055 2.68288 0.97276 2.62363C0.948995 2.61584 0.927543 2.59693 0.911565 2.5697C0.928457 2.54539 0.947838 2.52664 0.97276 2.52026C0.958 2.44796 0.977725 2.41264 1.02036 2.39778C1.01175 2.42558 1.01147 2.45117 1.01432 2.47531C1.08144 2.44698 1.18431 2.49205 1.18431 2.66408C1.18431 2.83487 1.10441 2.97869 0.954624 2.94275C0.990253 2.96803 1.00838 3.01976 1.01204 3.07759C0.984833 3.06187 0.954624 3.05963 0.954624 3.05963C0.972138 3.10544 0.996461 3.14494 0.995417 3.23491C0.967651 3.21617 0.941851 3.18149 0.906267 3.20343C0.962131 3.36653 0.893495 3.59086 0.718893 3.64394C0.782798 3.53279 0.814085 3.4128 0.814085 3.29334C0.814085 2.90617 0.741561 2.8411 0.741561 2.57194C0.741561 2.45931 0.780577 2.3377 0.85791 2.25505V2.25955C0.806799 2.23923 0.774058 2.20189 0.755232 2.15116C0.872015 2.10202 1.04177 2.10293 1.13291 2.15613C1.23769 2.17414 1.31084 2.29339 1.33238 2.35393C1.35393 2.41441 1.39579 2.63328 1.33238 2.83034C1.26297 3.04601 0.935754 4.07541 0.833732 4.399C0.812097 4.46763 0.798969 4.54043 0.798969 4.61925C0.798969 4.81748 0.92136 4.88668 0.990886 4.88668C1.07399 4.88668 1.15861 4.79276 1.15861 4.67544C1.15861 4.60111 1.1314 4.55634 1.09212 4.55634C0.998183 4.55634 1.00389 4.67489 1.02262 4.7496C0.964153 4.7106 0.930168 4.64098 0.939508 4.56757C0.906411 4.56083 0.874903 4.53755 0.845826 4.48891C0.868705 4.44606 0.896604 4.41365 0.939508 4.4125C0.920772 4.2986 0.972161 4.25044 1.02262 4.22373C1.00666 4.30732 0.996183 4.40352 1.09212 4.40352C1.16209 4.40352 1.21715 4.4215 1.24927 4.48892C1.25116 4.39902 1.25683 4.04394 1.25683 4.04394C1.26087 3.9105 1.13646 3.91431 1.05738 3.95404C1.08722 3.80035 1.14843 3.71725 1.29008 3.73829C1.25569 3.71695 1.21905 3.66895 1.21905 3.57648C1.21908 3.45136 1.28749 3.31275 1.3324 3.27177L1.35486 4.57436L1.35485 4.57435Z" fill="#FFE700"/>
<path d="M1.35485 5.57611C1.35485 5.2421 1.15274 5.07043 0.993918 5.07043C0.779944 5.07043 0.666016 5.26024 0.666016 5.50871C0.666016 5.64956 0.683408 5.73794 0.727178 5.87274C0.727178 5.87274 1.08014 6.96178 1.21755 7.38299C1.23469 7.43552 1.24022 7.49533 1.24022 7.583C1.24022 7.7184 1.1517 7.82906 1.05889 7.83246C0.974282 7.83559 0.8821 7.71543 0.8821 7.5785C0.8821 7.41219 0.940252 7.33804 0.99996 7.33804C1.07344 7.33804 1.10271 7.38286 1.10271 7.4594C1.10271 7.51274 1.08536 7.5358 1.0604 7.5358C0.997383 7.5358 1.01508 7.40995 1.01508 7.40995C0.983778 7.42011 0.958055 7.46757 0.97276 7.52682C0.948995 7.53461 0.927543 7.55352 0.911565 7.58076C0.928457 7.60506 0.947838 7.62381 0.97276 7.63019C0.958 7.70249 0.977725 7.73781 1.02036 7.75267C1.01175 7.72487 1.01147 7.69928 1.01432 7.67514C1.08144 7.70347 1.18431 7.6584 1.18431 7.48637C1.18431 7.31558 1.10441 7.17176 0.954624 7.2077C0.990253 7.18242 1.00838 7.1307 1.01204 7.07286C0.984833 7.08858 0.954624 7.09082 0.954624 7.09082C0.972138 7.04501 0.996461 7.00551 0.995417 6.91554C0.967651 6.93428 0.941851 6.96897 0.906267 6.94702C0.962131 6.78392 0.893495 6.55959 0.718893 6.50651C0.782798 6.61766 0.814085 6.73765 0.814085 6.85711C0.814085 7.24428 0.741561 7.30935 0.741561 7.57852C0.741561 7.69114 0.780577 7.81275 0.85791 7.8954V7.8909C0.806799 7.91122 0.774058 7.94856 0.755232 7.99929C0.872015 8.04843 1.04177 8.04753 1.13291 7.99432C1.23769 7.97631 1.31084 7.85706 1.33238 7.79652C1.35393 7.73604 1.39579 7.51717 1.33238 7.32011C1.26297 7.10445 0.935754 6.07504 0.833732 5.75145C0.812097 5.68282 0.798969 5.61002 0.798969 5.5312C0.798969 5.33298 0.92136 5.26377 0.990886 5.26377C1.07399 5.26377 1.15861 5.35769 1.15861 5.47501C1.15861 5.54935 1.1314 5.59412 1.09212 5.59412C0.998183 5.59412 1.00389 5.47556 1.02262 5.40085C0.964153 5.43985 0.930168 5.50947 0.939508 5.58288C0.906411 5.58962 0.874903 5.6129 0.845826 5.66154C0.868705 5.70439 0.896604 5.7368 0.939508 5.73795C0.920772 5.85185 0.972161 5.90001 1.02262 5.92672C1.00666 5.84313 0.996183 5.74693 1.09212 5.74693C1.16209 5.74693 1.21715 5.72896 1.24927 5.66153C1.25116 5.75143 1.25683 6.10651 1.25683 6.10651C1.26087 6.23995 1.13646 6.23614 1.05738 6.19642C1.08722 6.35011 1.14843 6.4332 1.29008 6.41216C1.25569 6.4335 1.21905 6.4815 1.21905 6.57397C1.21908 6.69909 1.28749 6.8377 1.3324 6.87868L1.35486 5.57609L1.35485 5.57611Z" fill="#FFE700"/>
<path d="M1.33411 0.962325C1.33411 0.962325 1.44084 0.82925 1.47709 0.896002C1.5354 1.00336 1.29784 1.53811 1.29784 1.72642C1.29784 2.03553 1.43686 2.11958 1.60851 2.16373C1.7237 2.19336 1.91126 2.15134 1.91126 2.15134C1.87594 2.08093 1.85297 2.06018 1.79347 2.05456C1.85972 2.00353 1.92718 1.89275 1.92718 1.72032C1.92718 1.4544 1.8534 1.34479 1.8534 1.04501C1.8534 0.8787 1.94531 0.666992 1.94531 0.666992C1.78284 0.691116 1.70232 0.914309 1.74813 1.09268C1.72228 1.0982 1.6988 1.08955 1.67863 1.06121C1.66674 1.11064 1.68551 1.16804 1.71065 1.21749C1.6904 1.23353 1.67553 1.22391 1.64328 1.21403C1.64634 1.26497 1.66691 1.31909 1.71724 1.37004C1.57119 1.31377 1.48131 1.4648 1.48131 1.62292C1.48131 1.74236 1.53772 1.82796 1.59287 1.82796C1.61068 1.82796 1.63686 1.81707 1.65162 1.8007C1.66204 1.83358 1.65667 1.87757 1.64595 1.91045C1.68636 1.89459 1.71201 1.85899 1.69376 1.78487C1.7248 1.78063 1.74949 1.76508 1.76628 1.73543C1.74926 1.70309 1.72344 1.68447 1.69376 1.68598C1.71636 1.61678 1.69117 1.57805 1.65446 1.54665C1.65446 1.54665 1.67781 1.68598 1.6182 1.68598C1.5914 1.68598 1.56698 1.67303 1.56698 1.61442C1.56698 1.56339 1.59704 1.4927 1.66656 1.4972C1.73606 1.5017 1.79241 1.5683 1.79241 1.73293C1.79241 1.88479 1.70985 1.96032 1.60105 1.9652C1.50295 1.9697 1.4289 1.89085 1.4289 1.74069C1.4289 1.54085 1.62335 1.08532 1.62335 0.90724C1.62335 0.773604 1.54237 0.699025 1.46312 0.699025C1.36037 0.699025 1.27367 0.849979 1.27367 0.849979L1.33403 0.962276L1.33411 0.962325Z" fill="#FFE700"/>
<path d="M1.31117 4.57435C1.31117 4.90835 1.51328 5.08002 1.6721 5.08002C1.88607 5.08002 2 4.89021 2 4.64174C2 4.50089 1.98261 4.41252 1.93884 4.27771C1.93884 4.27771 1.58588 3.18867 1.44846 2.76746C1.43132 2.71493 1.42579 2.65512 1.42579 2.56745C1.42579 2.43206 1.51431 2.32139 1.60713 2.318C1.69173 2.31486 1.78392 2.43502 1.78392 2.57195C1.78392 2.73826 1.72576 2.81241 1.66606 2.81241C1.59258 2.81241 1.5633 2.76759 1.5633 2.69106C1.5633 2.63772 1.58066 2.61465 1.60562 2.61465C1.66863 2.61465 1.65094 2.74051 1.65094 2.74051C1.68224 2.73034 1.70796 2.68288 1.69326 2.62363C1.71702 2.61584 1.73847 2.59693 1.75445 2.5697C1.73756 2.54539 1.71818 2.52664 1.69326 2.52026C1.70802 2.44796 1.68829 2.41264 1.64565 2.39778C1.65426 2.42558 1.65455 2.45117 1.6517 2.47531C1.58458 2.44698 1.4817 2.49205 1.4817 2.66408C1.4817 2.83487 1.5616 2.97869 1.71139 2.94275C1.67576 2.96803 1.65764 3.01976 1.65397 3.07759C1.68118 3.06187 1.71139 3.05963 1.71139 3.05963C1.69388 3.10544 1.66955 3.14494 1.6706 3.23491C1.69836 3.21617 1.72416 3.18149 1.75975 3.20343C1.70388 3.36653 1.77252 3.59086 1.94712 3.64394C1.88322 3.53279 1.85193 3.4128 1.85193 3.29334C1.85193 2.90617 1.92445 2.8411 1.92445 2.57194C1.92445 2.45931 1.88544 2.3377 1.80811 2.25505V2.25955C1.85922 2.23923 1.89196 2.20189 1.91078 2.15116C1.794 2.10202 1.62424 2.10293 1.5331 2.15613C1.42833 2.17414 1.35518 2.29339 1.33363 2.35393C1.31209 2.41441 1.27023 2.63328 1.33363 2.83034C1.40305 3.04601 1.73026 4.07541 1.83228 4.399C1.85392 4.46763 1.86705 4.54043 1.86705 4.61925C1.86705 4.81748 1.74466 4.88668 1.67513 4.88668C1.59202 4.88668 1.5074 4.79276 1.5074 4.67544C1.5074 4.60111 1.53461 4.55634 1.5739 4.55634C1.66783 4.55634 1.66212 4.67489 1.6434 4.7496C1.70186 4.7106 1.73585 4.64098 1.72651 4.56757C1.7596 4.56083 1.79111 4.53755 1.82019 4.48891C1.79731 4.44606 1.76941 4.41365 1.72651 4.4125C1.74524 4.2986 1.69386 4.25044 1.6434 4.22373C1.65936 4.30732 1.66983 4.40352 1.5739 4.40352C1.50393 4.40352 1.44886 4.4215 1.41674 4.48892C1.41485 4.39902 1.40919 4.04394 1.40919 4.04394C1.40515 3.9105 1.52956 3.91431 1.60864 3.95404C1.57879 3.80035 1.51759 3.71725 1.37594 3.73829C1.41032 3.71695 1.44696 3.66895 1.44696 3.57648C1.44694 3.45136 1.37853 3.31275 1.33361 3.27177L1.31115 4.57436L1.31117 4.57435Z" fill="#FFE700"/>
<path d="M1.31117 5.57611C1.31117 5.2421 1.51328 5.07043 1.6721 5.07043C1.88607 5.07043 2 5.26024 2 5.50871C2 5.64956 1.98261 5.73794 1.93884 5.87274C1.93884 5.87274 1.58588 6.96178 1.44846 7.38299C1.43132 7.43552 1.42579 7.49533 1.42579 7.583C1.42579 7.7184 1.51431 7.82906 1.60713 7.83246C1.69173 7.83559 1.78392 7.71543 1.78392 7.5785C1.78392 7.41219 1.72576 7.33804 1.66606 7.33804C1.59258 7.33804 1.5633 7.38286 1.5633 7.4594C1.5633 7.51274 1.58066 7.5358 1.60562 7.5358C1.66863 7.5358 1.65094 7.40995 1.65094 7.40995C1.68224 7.42011 1.70796 7.46757 1.69326 7.52682C1.71702 7.53461 1.73847 7.55352 1.75445 7.58076C1.73756 7.60506 1.71818 7.62381 1.69326 7.63019C1.70802 7.70249 1.68829 7.73781 1.64565 7.75267C1.65426 7.72487 1.65455 7.69928 1.6517 7.67514C1.58458 7.70347 1.4817 7.6584 1.4817 7.48637C1.4817 7.31558 1.5616 7.17176 1.71139 7.2077C1.67576 7.18242 1.65764 7.1307 1.65397 7.07286C1.68118 7.08858 1.71139 7.09082 1.71139 7.09082C1.69388 7.04501 1.66955 7.00551 1.6706 6.91554C1.69836 6.93428 1.72416 6.96897 1.75975 6.94702C1.70388 6.78392 1.77252 6.55959 1.94712 6.50651C1.88322 6.61766 1.85193 6.73765 1.85193 6.85711C1.85193 7.24428 1.92445 7.30935 1.92445 7.57852C1.92445 7.69114 1.88544 7.81275 1.80811 7.8954V7.8909C1.85922 7.91122 1.89196 7.94856 1.91078 7.99929C1.794 8.04843 1.62424 8.04753 1.5331 7.99432C1.42833 7.97631 1.35518 7.85706 1.33363 7.79652C1.31209 7.73604 1.27023 7.51717 1.33363 7.32011C1.40305 7.10445 1.73026 6.07504 1.83228 5.75145C1.85392 5.68282 1.86705 5.61002 1.86705 5.5312C1.86705 5.33298 1.74466 5.26377 1.67513 5.26377C1.59202 5.26377 1.5074 5.35769 1.5074 5.47501C1.5074 5.54935 1.53461 5.59412 1.5739 5.59412C1.66783 5.59412 1.66212 5.47556 1.6434 5.40085C1.70186 5.43985 1.73585 5.50947 1.72651 5.58288C1.7596 5.58962 1.79111 5.6129 1.82019 5.66154C1.79731 5.70439 1.76941 5.7368 1.72651 5.73795C1.74524 5.85185 1.69386 5.90001 1.6434 5.92672C1.65936 5.84313 1.66983 5.74693 1.5739 5.74693C1.50393 5.74693 1.44886 5.72896 1.41674 5.66153C1.41485 5.75143 1.40919 6.10651 1.40919 6.10651C1.40515 6.23995 1.52956 6.23614 1.60864 6.19642C1.57879 6.35011 1.51759 6.4332 1.37594 6.41216C1.41032 6.4335 1.44696 6.4815 1.44696 6.57397C1.44694 6.69909 1.37853 6.8377 1.33361 6.87868L1.31115 5.57609L1.31117 5.57611Z" fill="#FFE700"/>
<path d="M1.3319 15.0387C1.3319 15.0387 1.22517 15.1717 1.18892 15.105C1.13061 14.9976 1.36818 14.4629 1.36818 14.2746C1.36818 13.9654 1.22916 13.8814 1.0575 13.8372C0.942318 13.8076 0.754755 13.8496 0.754755 13.8496C0.790073 13.92 0.813041 13.9408 0.872548 13.9464C0.806299 13.9974 0.73884 14.1082 0.73884 14.2807C0.73884 14.5466 0.812619 14.6562 0.812619 14.956C0.812619 15.1223 0.720703 15.334 0.720703 15.334C0.883177 15.3099 0.963698 15.0867 0.917884 14.9083C0.94374 14.9028 0.967218 14.9114 0.987387 14.9398C0.999271 14.8903 0.980501 14.8329 0.955368 14.7835C0.975615 14.7674 0.990486 14.7771 1.02274 14.787C1.01967 14.736 0.999104 14.6819 0.948771 14.6309C1.09483 14.6872 1.1847 14.5362 1.1847 14.3781C1.1847 14.2586 1.12829 14.173 1.07315 14.173C1.05534 14.173 1.02916 14.1839 1.0144 14.2003C1.00398 14.1674 1.00934 14.1234 1.02006 14.0905C0.979657 14.1064 0.954002 14.142 0.972261 14.2161C0.941218 14.2203 0.916529 14.2359 0.899736 14.2655C0.916751 14.2979 0.942573 14.3165 0.972261 14.315C0.949659 14.3842 0.974848 14.4229 1.01155 14.4543C1.01155 14.4543 0.988209 14.315 1.04782 14.315C1.07462 14.315 1.09904 14.3279 1.09904 14.3866C1.09904 14.4376 1.06897 14.5083 0.99946 14.5038C0.929957 14.4993 0.873603 14.4327 0.873603 14.268C0.873603 14.1162 0.956168 14.0407 1.06496 14.0358C1.16307 14.0313 1.23711 14.1101 1.23711 14.2603C1.23711 14.4601 1.04266 14.9157 1.04266 15.0937C1.04266 15.2274 1.12365 15.302 1.20289 15.302C1.30565 15.302 1.39234 15.151 1.39234 15.151L1.33198 15.0387L1.3319 15.0387Z" fill="#FFE700"/>
<path d="M1.35485 11.4266C1.35485 11.0926 1.15274 10.921 0.993918 10.921C0.779944 10.921 0.666016 11.1108 0.666016 11.3592C0.666016 11.5001 0.683408 11.5885 0.727178 11.7233C0.727178 11.7233 1.08014 12.8123 1.21755 13.2335C1.23469 13.286 1.24022 13.3459 1.24022 13.4335C1.24022 13.5689 1.1517 13.6796 1.05889 13.683C0.974282 13.6861 0.8821 13.566 0.8821 13.429C0.8821 13.2627 0.940252 13.1886 0.99996 13.1886C1.07344 13.1886 1.10271 13.2334 1.10271 13.3099C1.10271 13.3633 1.08536 13.3863 1.0604 13.3863C0.997383 13.3863 1.01508 13.2605 1.01508 13.2605C0.983778 13.2706 0.958055 13.3181 0.97276 13.3773C0.948995 13.3851 0.927543 13.404 0.911565 13.4313C0.928457 13.4556 0.947838 13.4743 0.97276 13.4807C0.958 13.553 0.977725 13.5883 1.02036 13.6032C1.01175 13.5754 1.01147 13.5498 1.01432 13.5257C1.08144 13.554 1.18431 13.5089 1.18431 13.3369C1.18431 13.1661 1.10441 13.0223 0.954624 13.0582C0.990253 13.0329 1.00838 12.9812 1.01204 12.9234C0.984833 12.9391 0.954624 12.9413 0.954624 12.9413C0.972138 12.8955 0.996461 12.856 0.995417 12.7661C0.967651 12.7848 0.941851 12.8195 0.906267 12.7975C0.962131 12.6344 0.893495 12.4101 0.718893 12.357C0.782798 12.4682 0.814085 12.5882 0.814085 12.7076C0.814085 13.0948 0.741561 13.1599 0.741561 13.429C0.741561 13.5417 0.780577 13.6633 0.85791 13.7459V13.7414C0.806799 13.7617 0.774058 13.7991 0.755232 13.8498C0.872015 13.899 1.04177 13.8981 1.13291 13.8448C1.23769 13.8268 1.31084 13.7076 1.33238 13.647C1.35393 13.5866 1.39579 13.3677 1.33238 13.1706C1.26297 12.955 0.935754 11.9256 0.833732 11.602C0.812097 11.5333 0.798969 11.4605 0.798969 11.3817C0.798969 11.1835 0.92136 11.1143 0.990886 11.1143C1.07399 11.1143 1.15861 11.2082 1.15861 11.3255C1.15861 11.3999 1.1314 11.4446 1.09212 11.4446C0.998183 11.4446 1.00389 11.3261 1.02262 11.2514C0.964153 11.2904 0.930168 11.36 0.939508 11.4334C0.906411 11.4401 0.874903 11.4634 0.845826 11.5121C0.868705 11.5549 0.896604 11.5873 0.939508 11.5885C0.920772 11.7024 0.972161 11.7505 1.02262 11.7772C1.00666 11.6937 0.996183 11.5975 1.09212 11.5975C1.16209 11.5975 1.21715 11.5795 1.24927 11.5121C1.25116 11.602 1.25683 11.957 1.25683 11.957C1.26087 12.0905 1.13646 12.0867 1.05738 12.0469C1.08722 12.2006 1.14843 12.2837 1.29008 12.2627C1.25569 12.284 1.21905 12.332 1.21905 12.4245C1.21908 12.5496 1.28749 12.6882 1.3324 12.7292L1.35486 11.4266L1.35485 11.4266Z" fill="#FFE700"/>
<path d="M1.35485 10.4249C1.35485 10.7589 1.15274 10.9306 0.993918 10.9306C0.779944 10.9306 0.666016 10.7408 0.666016 10.4923C0.666016 10.3515 0.683408 10.2631 0.727178 10.1283C0.727178 10.1283 1.08014 9.03926 1.21755 8.61805C1.23469 8.56552 1.24022 8.5057 1.24022 8.41804C1.24022 8.28264 1.1517 8.17198 1.05889 8.16858C0.974282 8.16545 0.8821 8.28561 0.8821 8.42254C0.8821 8.58885 0.940252 8.663 0.99996 8.663C1.07344 8.663 1.10271 8.61818 1.10271 8.54164C1.10271 8.4883 1.08536 8.46523 1.0604 8.46523C0.997383 8.46523 1.01508 8.59109 1.01508 8.59109C0.983778 8.58092 0.958055 8.53347 0.97276 8.47421C0.948995 8.46642 0.927543 8.44752 0.911565 8.42028C0.928457 8.39598 0.947838 8.37722 0.97276 8.37085C0.958 8.29854 0.977725 8.26323 1.02036 8.24837C1.01175 8.27617 1.01147 8.30176 1.01432 8.3259C1.08144 8.29757 1.18431 8.34264 1.18431 8.51467C1.18431 8.68546 1.10441 8.82928 0.954624 8.79334C0.990253 8.81862 1.00838 8.87034 1.01204 8.92818C0.984833 8.91246 0.954624 8.91022 0.954624 8.91022C0.972138 8.95603 0.996461 8.99552 0.995417 9.08549C0.967651 9.06676 0.941851 9.03207 0.906267 9.05402C0.962131 9.21712 0.893495 9.44145 0.718893 9.49452C0.782798 9.38338 0.814085 9.26339 0.814085 9.14392C0.814085 8.75676 0.741561 8.69169 0.741561 8.42252C0.741561 8.3099 0.780577 8.18829 0.85791 8.10564V8.11013C0.806799 8.08982 0.774058 8.05248 0.755232 8.00174C0.872015 7.95261 1.04177 7.95351 1.13291 8.00672C1.23769 8.02473 1.31084 8.14398 1.33238 8.20452C1.35393 8.26499 1.39579 8.48387 1.33238 8.68093C1.26297 8.89659 0.935754 9.926 0.833732 10.2496C0.812097 10.3182 0.798969 10.391 0.798969 10.4698C0.798969 10.6681 0.92136 10.7373 0.990886 10.7373C1.07399 10.7373 1.15861 10.6433 1.15861 10.526C1.15861 10.4517 1.1314 10.4069 1.09212 10.4069C0.998183 10.4069 1.00389 10.5255 1.02262 10.6002C0.964153 10.5612 0.930168 10.4916 0.939508 10.4182C0.906411 10.4114 0.874903 10.3881 0.845826 10.3395C0.868705 10.2967 0.896604 10.2642 0.939508 10.2631C0.920772 10.1492 0.972161 10.101 1.02262 10.0743C1.00666 10.1579 0.996183 10.2541 1.09212 10.2541C1.16209 10.2541 1.21715 10.2721 1.24927 10.3395C1.25116 10.2496 1.25683 9.89452 1.25683 9.89452C1.26087 9.76109 1.13646 9.76489 1.05738 9.80462C1.08722 9.65093 1.14843 9.56783 1.29008 9.58888C1.25569 9.56754 1.21905 9.51954 1.21905 9.42706C1.21908 9.30195 1.28749 9.16333 1.3324 9.12235L1.35486 10.4249L1.35485 10.4249Z" fill="#FFE700"/>
<path d="M1.33411 15.0387C1.33411 15.0387 1.44084 15.1717 1.47709 15.105C1.5354 14.9976 1.29784 14.4629 1.29784 14.2746C1.29784 13.9654 1.43686 13.8814 1.60851 13.8372C1.7237 13.8076 1.91126 13.8496 1.91126 13.8496C1.87594 13.92 1.85297 13.9408 1.79347 13.9464C1.85972 13.9974 1.92718 14.1082 1.92718 14.2807C1.92718 14.5466 1.8534 14.6562 1.8534 14.956C1.8534 15.1223 1.94531 15.334 1.94531 15.334C1.78284 15.3099 1.70232 15.0867 1.74813 14.9083C1.72228 14.9028 1.6988 14.9114 1.67863 14.9398C1.66674 14.8903 1.68551 14.8329 1.71065 14.7835C1.6904 14.7674 1.67553 14.7771 1.64328 14.787C1.64634 14.736 1.66691 14.6819 1.71724 14.6309C1.57119 14.6872 1.48131 14.5362 1.48131 14.3781C1.48131 14.2586 1.53772 14.173 1.59287 14.173C1.61068 14.173 1.63686 14.1839 1.65162 14.2003C1.66204 14.1674 1.65667 14.1234 1.64595 14.0905C1.68636 14.1064 1.71201 14.142 1.69376 14.2161C1.7248 14.2203 1.74949 14.2359 1.76628 14.2655C1.74926 14.2979 1.72344 14.3165 1.69376 14.315C1.71636 14.3842 1.69117 14.4229 1.65446 14.4543C1.65446 14.4543 1.67781 14.315 1.6182 14.315C1.5914 14.315 1.56698 14.3279 1.56698 14.3866C1.56698 14.4376 1.59704 14.5083 1.66656 14.5038C1.73606 14.4993 1.79241 14.4327 1.79241 14.268C1.79241 14.1162 1.70985 14.0407 1.60105 14.0358C1.50295 14.0313 1.4289 14.1101 1.4289 14.2603C1.4289 14.4601 1.62335 14.9157 1.62335 15.0937C1.62335 15.2274 1.54237 15.302 1.46312 15.302C1.36037 15.302 1.27367 15.151 1.27367 15.151L1.33403 15.0387L1.33411 15.0387Z" fill="#FFE700"/>
<path d="M1.31117 11.4266C1.31117 11.0926 1.51328 10.921 1.6721 10.921C1.88607 10.921 2 11.1108 2 11.3592C2 11.5001 1.98261 11.5885 1.93884 11.7233C1.93884 11.7233 1.58588 12.8123 1.44846 13.2335C1.43132 13.286 1.42579 13.3459 1.42579 13.4335C1.42579 13.5689 1.51431 13.6796 1.60713 13.683C1.69173 13.6861 1.78392 13.566 1.78392 13.429C1.78392 13.2627 1.72576 13.1886 1.66606 13.1886C1.59258 13.1886 1.5633 13.2334 1.5633 13.3099C1.5633 13.3633 1.58066 13.3863 1.60562 13.3863C1.66863 13.3863 1.65094 13.2605 1.65094 13.2605C1.68224 13.2706 1.70796 13.3181 1.69326 13.3773C1.71702 13.3851 1.73847 13.404 1.75445 13.4313C1.73756 13.4556 1.71818 13.4743 1.69326 13.4807C1.70802 13.553 1.68829 13.5883 1.64565 13.6032C1.65426 13.5754 1.65455 13.5498 1.6517 13.5257C1.58458 13.554 1.4817 13.5089 1.4817 13.3369C1.4817 13.1661 1.5616 13.0223 1.71139 13.0582C1.67576 13.0329 1.65764 12.9812 1.65397 12.9234C1.68118 12.9391 1.71139 12.9413 1.71139 12.9413C1.69388 12.8955 1.66955 12.856 1.6706 12.7661C1.69836 12.7848 1.72416 12.8195 1.75975 12.7975C1.70388 12.6344 1.77252 12.4101 1.94712 12.357C1.88322 12.4682 1.85193 12.5882 1.85193 12.7076C1.85193 13.0948 1.92445 13.1599 1.92445 13.429C1.92445 13.5417 1.88544 13.6633 1.80811 13.7459V13.7414C1.85922 13.7617 1.89196 13.7991 1.91078 13.8498C1.794 13.899 1.62424 13.8981 1.5331 13.8448C1.42833 13.8268 1.35518 13.7076 1.33363 13.647C1.31209 13.5866 1.27023 13.3677 1.33363 13.1706C1.40305 12.955 1.73026 11.9256 1.83228 11.602C1.85392 11.5333 1.86705 11.4605 1.86705 11.3817C1.86705 11.1835 1.74466 11.1143 1.67513 11.1143C1.59202 11.1143 1.5074 11.2082 1.5074 11.3255C1.5074 11.3999 1.53461 11.4446 1.5739 11.4446C1.66783 11.4446 1.66212 11.3261 1.6434 11.2514C1.70186 11.2904 1.73585 11.36 1.72651 11.4334C1.7596 11.4401 1.79111 11.4634 1.82019 11.5121C1.79731 11.5549 1.76941 11.5873 1.72651 11.5885C1.74524 11.7024 1.69386 11.7505 1.6434 11.7772C1.65936 11.6937 1.66983 11.5975 1.5739 11.5975C1.50393 11.5975 1.44886 11.5795 1.41674 11.5121C1.41485 11.602 1.40919 11.957 1.40919 11.957C1.40515 12.0905 1.52956 12.0867 1.60864 12.0469C1.57879 12.2006 1.51759 12.2837 1.37594 12.2627C1.41032 12.284 1.44696 12.332 1.44696 12.4245C1.44694 12.5496 1.37853 12.6882 1.33361 12.7292L1.31115 11.4266L1.31117 11.4266Z" fill="#FFE700"/>
<path d="M1.31117 10.4249C1.31117 10.7589 1.51328 10.9306 1.6721 10.9306C1.88607 10.9306 2 10.7408 2 10.4923C2 10.3515 1.98261 10.2631 1.93884 10.1283C1.93884 10.1283 1.58588 9.03926 1.44846 8.61805C1.43132 8.56552 1.42579 8.5057 1.42579 8.41804C1.42579 8.28264 1.51431 8.17198 1.60713 8.16858C1.69173 8.16545 1.78392 8.28561 1.78392 8.42254C1.78392 8.58885 1.72576 8.663 1.66606 8.663C1.59258 8.663 1.5633 8.61818 1.5633 8.54164C1.5633 8.4883 1.58066 8.46523 1.60562 8.46523C1.66863 8.46523 1.65094 8.59109 1.65094 8.59109C1.68224 8.58092 1.70796 8.53347 1.69326 8.47421C1.71702 8.46642 1.73847 8.44752 1.75445 8.42028C1.73756 8.39598 1.71818 8.37722 1.69326 8.37085C1.70802 8.29854 1.68829 8.26323 1.64565 8.24837C1.65426 8.27617 1.65455 8.30176 1.6517 8.3259C1.58458 8.29757 1.4817 8.34264 1.4817 8.51467C1.4817 8.68546 1.5616 8.82928 1.71139 8.79334C1.67576 8.81862 1.65764 8.87034 1.65397 8.92818C1.68118 8.91246 1.71139 8.91022 1.71139 8.91022C1.69388 8.95603 1.66955 8.99552 1.6706 9.08549C1.69836 9.06676 1.72416 9.03207 1.75975 9.05402C1.70388 9.21712 1.77252 9.44145 1.94712 9.49452C1.88322 9.38338 1.85193 9.26339 1.85193 9.14392C1.85193 8.75676 1.92445 8.69169 1.92445 8.42252C1.92445 8.3099 1.88544 8.18829 1.80811 8.10564V8.11013C1.85922 8.08982 1.89196 8.05248 1.91078 8.00174C1.794 7.95261 1.62424 7.95351 1.5331 8.00672C1.42833 8.02473 1.35518 8.14398 1.33363 8.20452C1.31209 8.26499 1.27023 8.48387 1.33363 8.68093C1.40305 8.89659 1.73026 9.926 1.83228 10.2496C1.85392 10.3182 1.86705 10.391 1.86705 10.4698C1.86705 10.6681 1.74466 10.7373 1.67513 10.7373C1.59202 10.7373 1.5074 10.6433 1.5074 10.526C1.5074 10.4517 1.53461 10.4069 1.5739 10.4069C1.66783 10.4069 1.66212 10.5255 1.6434 10.6002C1.70186 10.5612 1.73585 10.4916 1.72651 10.4182C1.7596 10.4114 1.79111 10.3881 1.82019 10.3395C1.79731 10.2967 1.76941 10.2642 1.72651 10.2631C1.74524 10.1492 1.69386 10.101 1.6434 10.0743C1.65936 10.1579 1.66983 10.2541 1.5739 10.2541C1.50393 10.2541 1.44886 10.2721 1.41674 10.3395C1.41485 10.2496 1.40919 9.89452 1.40919 9.89452C1.40515 9.76109 1.52956 9.76489 1.60864 9.80462C1.57879 9.65093 1.51759 9.56783 1.37594 9.58888C1.41032 9.56754 1.44696 9.51954 1.44696 9.42706C1.44694 9.30195 1.37853 9.16333 1.33361 9.12235L1.31115 10.4249L1.31117 10.4249Z" fill="#FFE700"/>
</g>
<defs>
<clipPath id="clip0_280_1140">
<rect width="16" height="16" rx="4" fill="white"/>
</clipPath>
</defs>
</svg>
