<svg width="16" height="16" viewBox="0 0 16 16" fill="none" xmlns="http://www.w3.org/2000/svg">
<g clip-path="url(#clip0_280_1896)">
<rect width="16" height="16" fill="#E30A17"/>
<path fill-rule="evenodd" clip-rule="evenodd" d="M4.39128 8.00003C4.39128 9.24866 5.40353 10.2609 6.65216 10.2609C7.04147 10.2609 7.40778 10.1624 7.72759 9.98909C7.22591 10.4798 6.53978 10.7826 5.78259 10.7826C4.24581 10.7826 3 9.53678 3 8C3 6.46322 4.24578 5.21741 5.78259 5.21741C6.53972 5.21741 7.22587 5.52022 7.72759 6.01091C7.40778 5.83763 7.04147 5.73916 6.65216 5.73916C5.40353 5.73916 4.39128 6.75141 4.39128 8.00003ZM9.09906 7.44176L8.44266 6.53723L8.44197 7.65486L7.37891 7.99954L8.44159 8.34554L8.44091 9.46307L9.09831 8.55933L10.161 8.90532L9.50466 8.00082L10.1621 7.09707L9.09906 7.44176Z" fill="white"/>
</g>
<defs>
<clipPath id="clip0_280_1896">
<rect width="16" height="16" rx="4" fill="white"/>
</clipPath>
</defs>
</svg>
